<svg width="91" height="66" viewBox="0 0 91 66" fill="none" xmlns="http://www.w3.org/2000/svg">
<path d="M27.3377 22.3656C34.497 34.5058 29.363 52.2863 25.4793 60.362C21.4362 35.2335 15.1078 22.849 12.449 19.7979C17.145 30.0239 20.972 52.7487 22.2984 62.8329C16.7936 61.8855 4.91514 56.1096 1.43947 40.5848C-2.03619 25.06 4.20848 7.38673 7.76527 0.490703C7.38205 4.88498 14.8063 11.5591 20.725 15.9522C23.2162 17.8013 25.7624 19.6944 27.3377 22.3656Z" fill="#1E1E1E"/>
<path d="M52.032 62.7826C42.3045 62.5546 33.8124 64.6054 30.7822 65.6593C40.3022 47.2335 61.6917 31.7468 71.1964 26.3067C48.5311 35.0244 32.924 53.5845 27.9537 61.7748C40.535 24.3909 75.0021 15.3903 90.6631 15.563C88.1797 17.1443 83.2136 23.1315 83.2159 34.4299C83.2183 45.7284 76.669 53.3535 73.394 55.7537C70.3264 58.1916 61.7594 63.0105 52.032 62.7826Z" fill="#1E1E1E"/>
</svg>
