<svg width="62" height="57" viewBox="0 0 62 57" fill="none" xmlns="http://www.w3.org/2000/svg">
<path d="M7.05719e-05 0L5.65559 21.1954C8.16915 30.6156 19.8951 33.7707 26.7622 26.8747C33.6294 19.9786 30.4875 8.20342 21.1067 5.67929L7.05719e-05 0Z" fill="#2241CF"/>
<path d="M4.74106 31.5336L7.53749 47.55C9.12586 56.6475 20.2586 60.1783 26.7622 53.6473C33.2659 47.1163 29.7498 35.9368 20.6905 34.3417L4.74106 31.5336Z" fill="#F0B143"/>
<path d="M37.0002 7C40.2833 7 43.5342 7.64664 46.5673 8.90301C49.6005 10.1594 52.3564 12.0009 54.6779 14.3223C56.9994 16.6438 58.8409 19.3998 60.0972 22.4329C61.3536 25.4661 62.0002 28.717 62.0002 32C62.0002 35.283 61.3536 38.5339 60.0972 41.5671C58.8409 44.6002 56.9994 47.3562 54.6779 49.6777C52.3565 51.9991 49.6005 53.8406 46.5673 55.097C43.5342 56.3534 40.2833 57 37.0002 57L37.0002 7Z" fill="#FF3C78"/>
</svg>
