<svg width="36" height="36" viewBox="0 0 36 36" fill="none" xmlns="http://www.w3.org/2000/svg">
<path d="M30.9299 12.675C29.3549 5.745 23.3099 2.625 17.9999 2.625C17.9999 2.625 17.9999 2.625 17.9849 2.625C12.6899 2.625 6.6299 5.73 5.0549 12.66C3.2999 20.4 8.0399 26.955 12.3299 31.08C13.9199 32.61 15.9599 33.375 17.9999 33.375C20.0399 33.375 22.0799 32.61 23.6549 31.08C27.9449 26.955 32.6849 20.415 30.9299 12.675ZM17.9999 20.19C15.3899 20.19 13.2749 18.075 13.2749 15.465C13.2749 12.855 15.3899 10.74 17.9999 10.74C20.6099 10.74 22.7249 12.855 22.7249 15.465C22.7249 18.075 20.6099 20.19 17.9999 20.19Z" fill="#F0B143"/>
</svg>
