<svg width="36" height="36" viewBox="0 0 36 36" fill="none" xmlns="http://www.w3.org/2000/svg">
<path d="M19.785 9H10.185C9.795 9 9.42 9.015 9.06 9.06C5.025 9.405 3 11.79 3 16.185V22.185C3 28.185 5.4 29.37 10.185 29.37H10.785C11.115 29.37 11.55 29.595 11.745 29.85L13.545 32.25C14.34 33.315 15.63 33.315 16.425 32.25L18.225 29.85C18.45 29.55 18.81 29.37 19.185 29.37H19.785C24.18 29.37 26.565 27.36 26.91 23.31C26.955 22.95 26.97 22.575 26.97 22.185V16.185C26.97 11.4 24.57 9 19.785 9ZM9.75 21C8.91 21 8.25 20.325 8.25 19.5C8.25 18.675 8.925 18 9.75 18C10.575 18 11.25 18.675 11.25 19.5C11.25 20.325 10.575 21 9.75 21ZM14.985 21C14.145 21 13.485 20.325 13.485 19.5C13.485 18.675 14.16 18 14.985 18C15.81 18 16.485 18.675 16.485 19.5C16.485 20.325 15.825 21 14.985 21ZM20.235 21C19.395 21 18.735 20.325 18.735 19.5C18.735 18.675 19.41 18 20.235 18C21.06 18 21.735 18.675 21.735 19.5C21.735 20.325 21.06 21 20.235 21Z" fill="#F0B143"/>
<path d="M32.9699 10.185V16.185C32.9699 19.185 32.0399 21.225 30.1799 22.35C29.7299 22.62 29.2049 22.26 29.2049 21.735L29.2199 16.185C29.2199 10.185 25.7849 6.75 19.7849 6.75L10.6499 6.765C10.1249 6.765 9.76488 6.24 10.0349 5.79C11.1599 3.93 13.1999 3 16.1849 3H25.7849C30.5699 3 32.9699 5.4 32.9699 10.185Z" fill="#F0B143"/>
</svg>
