<svg width="21" height="18" viewBox="0 0 21 18" fill="none" xmlns="http://www.w3.org/2000/svg">
<g clip-path="url(#clip0_1165_2213)">
<path d="M12.6464 7.77143C12.7026 8.10112 12.7428 8.43081 12.7428 8.85847C12.7428 12.5919 10.484 15.2383 7.08367 15.2383C3.82807 15.2383 1.19141 12.3157 1.19141 8.70703C1.19141 5.09835 3.82807 2.17578 7.08367 2.17578C8.67532 2.17578 10.0017 2.81731 11.0306 3.88656L9.43091 5.58843C8.99681 5.12508 8.23318 4.58156 7.08367 4.58156C5.07404 4.58156 3.43415 6.42599 3.43415 8.70703C3.43415 10.9881 5.07404 12.8325 7.08367 12.8325C9.41483 12.8325 10.2911 10.9702 10.4277 10.0168H7.08367V7.7714H12.6464V7.77143ZM18.3363 7.9904V6.09453H16.6177V7.9904H14.9073V9.89538H16.6177V11.7912H18.3363V9.89538H20.0466V7.9904H18.3363Z" fill="#F04D3F"/>
</g>
<defs>
<clipPath id="clip0_1165_2213">
<rect width="19.6409" height="17.4167" fill="white" transform="translate(0.796875)"/>
</clipPath>
</defs>
</svg>
