<svg width="20" height="19" viewBox="0 0 20 19" fill="none" xmlns="http://www.w3.org/2000/svg">
<path fill-rule="evenodd" clip-rule="evenodd" d="M8.07479 7.09916H11.1142V8.56374C11.552 7.72141 12.6748 6.96457 14.3615 6.96457C17.5949 6.96457 18.3625 8.64132 18.3625 11.7177V17.4154H15.089V12.4184C15.089 10.6664 14.6512 9.67841 13.5366 9.67841C11.9907 9.67841 11.3483 10.7432 11.3483 12.4176V17.4154H8.07479V7.09916ZM2.46159 17.2808H5.73507V6.96457H2.46159V17.2808ZM6.20399 3.60078C6.20411 3.86621 6.1497 4.12901 6.04391 4.37391C5.93812 4.61882 5.78307 4.84094 5.58776 5.02736C5.192 5.40786 4.6563 5.62084 4.09833 5.61953C3.54134 5.61917 3.00688 5.40673 2.61053 5.02816C2.41593 4.8411 2.2614 4.61873 2.1558 4.37379C2.05019 4.12885 1.99559 3.86617 1.99512 3.60078C1.99512 3.06482 2.21608 2.55182 2.61135 2.17341C3.00735 1.79432 3.54203 1.58179 4.09915 1.58203C4.65727 1.58203 5.19249 1.79499 5.58776 2.17341C5.98222 2.55182 6.20399 3.06482 6.20399 3.60078Z" fill="#007BB6"/>
</svg>
