<svg width="20" height="19" viewBox="0 0 20 19" fill="none" xmlns="http://www.w3.org/2000/svg">
<path d="M10.1001 1.89844C5.77909 1.89844 3.52039 4.55844 3.52039 7.50344C3.52039 8.92844 4.30602 10.3534 5.58268 11.1134C5.9755 11.3034 5.87729 11.1134 6.1719 9.97344C6.1719 9.87844 6.1719 9.78344 6.0737 9.68844C4.30602 7.59844 5.77909 3.51344 9.90367 3.51344C15.8941 3.51344 14.7157 11.4934 10.9839 11.4934C10.1983 11.5884 9.51085 11.0184 9.51085 10.2584V9.87844C9.90367 8.83344 10.1983 7.88344 10.2965 6.83844C10.2965 4.84344 7.25215 5.12844 7.25215 7.78844C7.25215 8.26344 7.35036 8.73844 7.54677 9.11844C7.54677 9.11844 6.56472 13.0134 6.36831 13.6784C6.1719 14.8184 6.27011 15.9584 6.46652 17.0034C6.36831 17.0984 6.46652 17.0984 6.46652 17.0984H6.56472C7.25215 16.1484 7.84138 15.1984 8.2342 14.1534C8.3324 13.6784 8.82342 11.9684 8.82342 11.9684C9.31444 12.6334 10.1983 13.0134 11.0821 13.0134C14.1265 13.0134 16.287 10.4484 16.287 7.31344C16.287 4.17844 13.5372 1.89844 10.1001 1.89844Z" fill="#CB2056"/>
</svg>
