<svg width="19" height="15" viewBox="0 0 19 15" fill="none" xmlns="http://www.w3.org/2000/svg">
<path d="M18.5819 1.90915C17.8986 2.20207 17.1645 2.39998 16.3928 2.48944C17.189 2.02853 17.7848 1.3031 18.0688 0.448525C17.3207 0.878392 16.5019 1.18097 15.6481 1.34311C15.0739 0.750043 14.3133 0.35695 13.4845 0.224859C12.6558 0.0927673 11.8051 0.229068 11.0646 0.6126C10.324 0.996132 9.73514 1.60544 9.38928 2.34592C9.04342 3.08639 8.95995 3.91662 9.15183 4.70769C7.63595 4.63406 6.15302 4.25292 4.79927 3.58899C3.44552 2.92506 2.25121 1.99319 1.29384 0.853858C0.966495 1.40011 0.77827 2.03344 0.77827 2.70794C0.777905 3.31515 0.932477 3.91305 1.22827 4.4486C1.52407 4.98416 1.95194 5.4408 2.47393 5.77802C1.86856 5.75939 1.27655 5.60115 0.747172 5.31648V5.36398C0.747111 6.21561 1.05163 7.04103 1.60906 7.70019C2.1665 8.35934 2.94251 8.81164 3.80542 8.98032C3.24384 9.12734 2.65507 9.149 2.08357 9.04365C2.32703 9.77643 2.80128 10.4172 3.43991 10.8763C4.07854 11.3354 4.84959 11.5898 5.64512 11.6039C4.29467 12.6294 2.62687 13.1857 0.910027 13.1833C0.605906 13.1834 0.302041 13.1662 0 13.1318C1.7427 14.2157 3.77133 14.791 5.84316 14.7888C12.8566 14.7888 16.6907 9.16952 16.6907 4.29602C16.6907 4.13769 16.6866 3.97777 16.6792 3.81944C17.425 3.29771 18.0687 2.65165 18.5803 1.91153L18.5819 1.90915Z" fill="#10ADED"/>
</svg>
